<svg xmlns="http://www.w3.org/2000/svg" xmlns:xlink="http://www.w3.org/1999/xlink" width="700" zoomAndPan="magnify" viewBox="0 0 525 74.999997" height="100" preserveAspectRatio="xMidYMid meet" version="1.0"><defs><g/></defs><g fill="#000000" fill-opacity="1"><g transform="translate(208.719721, 54.912445)"><g><path d="M 29.9375 -35.515625 L 29.9375 -31.796875 L 8.640625 -3.71875 L 29.4375 -3.71875 L 29.4375 0 L 3.109375 0 L 3.109375 -3.71875 L 25.0625 -31.796875 L 3.609375 -31.796875 L 3.609375 -35.515625 Z M 29.9375 -35.515625 "/></g></g></g><g fill="#000000" fill-opacity="1"><g transform="translate(241.756121, 54.912445)"><g><path d="M 27.453125 -35.515625 L 27.453125 -31.796875 L 8.8125 -31.796875 L 8.8125 -19.875 L 26.578125 -19.875 L 26.578125 -16.140625 L 8.8125 -16.140625 L 8.8125 -3.71875 L 27.828125 -3.71875 L 27.828125 0 L 4.21875 0 L 4.21875 -35.515625 Z M 27.453125 -35.515625 "/></g></g></g><g fill="#000000" fill-opacity="1"><g transform="translate(272.308582, 54.912445)"><g><path d="M 9.5625 -35.515625 L 9.5625 0 L 4.96875 0 L 4.96875 -35.515625 Z M 9.5625 -35.515625 "/></g></g></g><g fill="#000000" fill-opacity="1"><g transform="translate(286.839637, 54.912445)"><g><path d="M 28.1875 -35.515625 L 28.1875 -31.796875 L 17.015625 -31.796875 L 17.015625 0 L 12.421875 0 L 12.421875 -31.796875 L 1.234375 -31.796875 L 1.234375 -35.515625 Z M 28.1875 -35.515625 "/></g></g></g></svg>